<svg xmlns="http://www.w3.org/2000/svg" width="573" height="551"><path stroke="#000" d="M0 0h573v551H0V0zm504 110q-27 25-43 60l-5-25v-6l-3-9-6-3q-7 0-9 3-9 7-13 19l-4 15-1 15-4 16q-1 9 5 11l8-1 2-3v-5l4-16 2-19 5-13 2 12v6l6 26 6 4 6-1 6-6q8-22 21-39 11-17 25-29v-8q-2-5-10-4zm-118 25l-7 4-17 19-5 11-2 10v18l3 7 8 6 8 2q10 0 15-5l15-17 5-17v-16q-3-8-9-12l-2-7q-3-5-12-3zm-40 1l-25 5q-12 2-17-2l-7 2-3 4 1 7q8 6 22 4l-11 31v14q2 5 11 3l3-3 1-12 8-23 4-5v-6l2-2 18-3 3-5-2-7q-2-3-8-2zm-68 9l-1 1-23 1-14 3h-9l-7 5 1 8 4 2q10 1 16-1l-4 18v7l-3 16v12l6 4 5-1q4-1 3-5v-2l5-29v-7l2-6q1-7-3-8l7-2h13l8-2q3-2 2-9-2-5-8-5zm-69 7q-5 3-6 9v4l-9 31-13 27-5 7-6-1-6-6v-14l3-13 2-23 1-1v-12l-2-4q-2-2-8-1l-5 6-2 27-4 21v18l5 9q5 6 15 9 10 2 15-3l9-10 10-19 8-20 6-25 3-5-1-7q-2-6-10-4zm-102 10l-1 1h-9l-9 2-14 7q-6 4-8 12-1 7 3 10v20l-1 1v12l-1 1v16l-1 1 1 8 5 3q6 1 8-3h13q16-4 28-13 12-8 16-24v-8l-3-6-9-7 3-2 7-7 1-3v-6l-3-6-12-8-14-1zm251 76l-2 1q-6 5-8 15l-2 20-1 1v9l-1 3-4-2q-17-1-23 8-9 7-13 19l-3-8q-4-8-12-11h-15l-5 2-5 6-2 2-8 2-4 15-6 42q-3 2-2 8l-3 5 1 7q2 3 10 2l4-4 4-11 4-24q21 1 33-9l6-7 2 5 8 5h6l10-5 5-6-1-6q-1-5-9-4l-6 5 6-13 9-9 4-1q5 0 7 4l-6 22v7l6 4 7-1 6-6q2-7-2-8l3-9 2-17 1-1 2-26 3-15 3-2 2-3-1-7q-2-5-10-4zm118 19l-5 2-2 5 1 8 4 3v12q-3 4-2 13l7 5 7-2 11-16v10l4 6 7 4h5q6-1 4-10l-5-4v-7l1-1q1-12-2-19l-3-4-4-1q-10 2-14 9 1 2-2 1l-3-10q-2-5-9-4zm-321 7q-21 4-35 13l-30 22q-14 11-23 28-1 9 5 11l8-1q3-3 3-8l7-9 8-7h1l-6 23-2 18-2 3 1 6 5 3q6 1 8-2l3-7 3-23 9-37 8-6 19-9 17-3-1 7-5 11-19 30q-29 40-62 77l-12 17-2 7 1 5q2 5 12 3l13-16q-1-7 2-9 35-39 65-82l12-19 9-18 2-7q1-9-2-14-5-9-20-7zm237 0l-11 5q-4 2-4 7l-2 1-7 10-3 12q-2 14 3 21 4 4 11 5 8-1 13-5l14-15 6-11 1-7 3 1-6 14v7l7 4q5 0 7-3l9 4q9 1 15-2 9-8 15-19l2-10v-9l-5-5-8 2-2 5-1 11-9 12h-3l-7-4 5-17-1-8-6-5q-13-1-17 7l-12-8h-7zm-163 40l-7 2h-2q-9 1-12 7l-5-4-6 1-16 13-6-3-6 1-7 4-8 10v6l2 3 8 2-1 2v3l5 6 9-1q6-5 7-15l16-14 3-2-1 4v14l2 4q3 5 11 6 11 0 17-6l12-14 3-8v-11l-2-3-7-6-9-1zm208 40l-13 7-15 5h-5l-14-8-8 1-4 5v5l4 7 2 10-6 5-6 7-1 4-2 1-3 4q-2 10 5 12h5q8-7 21-9l11 16q2 4 11 3l4-5v-6l2-3 1-9 16-1 12-5 5-8-1-7-2-3q-10-1-16-4l6-7-1-12q-2-5-8-5z"/><path stroke="#000" d="M387.5 155q4.8.3 6.5 3.5v13l-2 8q-4.7 10.3-13.5 16.5l-4 1-4.5-2.5-1-5 1-1v-9l3-10q2.3-6.7 7.5-10.5 5.2-.3 7-4zm-282 22h7l6.5 2-1.5 3-14 10-7.5 3.5-1 8 4.5 4.5h18l4.5 2.5q-1.4 12.6-10.5 17.5-9.4 7.6-24 10l-5.5-6.5 1-1v-15l1-1V183l9.5-4 11-1 1-1zm287 102q4.5-1 5.5 1.5.9 8.9-3 13L381.5 309l-1.5-.5v-8l2-8 3.5-4.5 3.5-2.5q.3-4.7 3.5-6.5zM276 308h8.5l2.5 2.5q2.3 3.2 1 10l-3.5 4.5-9 4-11.5 1 3-17q7.2 1.5 9-3.5V308zm-44.5 11l.5 3.5-12.5 14.5-2.5-.5v-7l1-3.5h2.5l6-6 5-1z"/><path fill="#B1249B" stroke="#B1249B" d="M503.5 110v1-1zm-12 13v1-1zm-5 6v1-1zm-49 1v1-1zm65 3v1-1zm-69 1v1-1zm-37 2l1 2-1-2zm-58 1v1-1zm-6 1v1-1zm123 0v1-1zm-152 1v1-1zm75 0v1-1zm-57 1v1-1zm156 1v1-1zm-122 1v1-1zm-78 3l2.5.5-2.5.5v-1zm-24 2v1-1zm116 1l-1 2 1-2zm-129 1v1-1zm45 0v1-1zm59 2v1-1zm96 0v1-1zm-102 1v1-1zm104 0v1-1zm-109 1v1-1zm31 1v1-1zm122 0v1-1zm-327 1v1-1zm8 1v1-1zm117 1l-1 2 1-2zm200 0v1-1zm-102 1v1-1zm76 1v1-1zm-303 1v1-1zm48 0v1-1zm72 0v1-1zm162 0v1-1zm45 0v1-1zm-221 1v1-1zm-155 1v1-1zm3 0l1.5.5-1.5.5v-1zm-13 1v1-1zm24 0v1-1zm-29 1v1-1zm150 0v1-1zm-154 1v1-1zm131 0v1-1zm140 0v1-1zm101 0v1-1zm-15 1v1-1zm-116 1v1-1zm29 1v1-1zm16 0v1-1zm-1 3v1-1zm21 1v1-1zm15 0v1-1zm27 0v1-1zm-220 2v1-1zm156 0v1-1zm-129 1v1-1zm-43 1v1-1zm110 0v1-1zm-205 1v1-1zm9 0v1-1zm4 1v1-1zm2 1v1-1zm34 0v1-1zm15 0v1-1zm251 0v1-1zm-221 1v1-1zm236 0v1-1zm-193 1v1-1zm-156 1v1-1zm171 0l.5 1.5h-1l.5-1.5zm67 0v1-1zm-257 1v1-1zm339 2v1-1zm-209 2v1-1zm173 0l.5 1.5h-1l.5-1.5zm-202 1v1-1zm73 1v1-1zm227 0v1-1zm-84 2l-2 3 2-3zm-282 1v1-1zm109 0v1-1zm110 0v1-1zm96 2v1-1zm-265 1v1-1zm15 0v1-1zm73 1v1-1zm-89 4v1-1zm169 0v1-1zm-186 1v1-1zm57 1v1-1zm63 1v1-1zm56 0v1-1zm7 0v1-1zm-127 1v1-1zm16 1v1-1zm-17 1v1-1zm177 3v1-1zm2 1v1-1zm6 1v1-1zm-171 1v1-1zm-119 1l.5 1.5h-1l.5-1.5zm169 0v1-1zm-184 1l.5 1.5h-1l.5-1.5zm133 0v1-1zm-65 1v1-1zm64 1v1-1zm-1 2v1-1zm-64 2v1-1zm63 0v1-1zm45 0v1-1zm3 0v1-1zm-49 2v1-1zm-1 2v1-1zm-47 2v1-1zm46 0v1-1zm-128 1v1-1zm110 0v1-1zm-49 4v1-1zm-29 3v1-1zm55 1v1-1zm203 3l1.5.5-1.5.5v-1zm5 0l1.5.5-1.5.5v-1zm-242 1v1-1zm235 0l-2 3 2-3zm10 0l2 3-2-3zm-249 3v1-1zm49 1v1-1zm187 0v1-1zm16 0v1-1zm-18 3v1-1zm-246 2v1-1zm264 0v1-1zm-19 1v1-1zm18 1l-1 2 1-2zm-19 3l.5 2.5h-1l.5-2.5zm15 1v1-1zm-292 1v1-1zm404 2l5.5.5-5.5.5v-1zm-113 1l.5 1.5h-1l.5-1.5zm120 0v1-1zm-135 1l.5 1.5h-1l.5-1.5zm124 0v1-1zm13 1v1-1zm18 1l1.5.5-1.5.5v-1zm-3 1v1-1zm8 0v1-1zm-38 1v1-1zm28 0v1-1zm-343 1l4.5.5-4.5.5v-1zm9 0l1.5.5-1.5.5v-1zm228 0l1.5.5-1.5.5v-1zm7 0v1-1zm88 0v1-1zm9 0l-1 2 1-2zm-346 1v1-1zm18 0v1-1zm194 0l.5 2.5h-1l.5-2.5zm26 0l1.5.5-1.5.5v-1zm13 0v1-1zm21 0l3.5.5-3.5.5v-1zm5 0l1.5.5-1.5.5v-1zm84 0v1-1zm-365 1l1.5.5-1.5.5v-1zm24 0v1-1zm177 0l.5 3.5h-1l.5-3.5zm39 0v1-1zm17 0v1-1zm16 0v1-1zm11 0v1-1zm-287 1v1-1zm29 0v1-1zm212 0l-1 2 1-2zm21 0v1-1zm11 0v1-1zm16 0l2 3-2-3zm56 0l.5 1.5h-1l.5-1.5zm5 0l-2 3 2-3zm19 0v1-1zm-372 1v1-1zm-3 1v1-1zm37 0l1 2-1-2zm207 0l-2 3 2-3zm76 0l3.5.5-3.5.5v-1zm13 0v1-1zm-336 1l1.5.5-1.5.5v-1zm328 0v1-1zm-330 1v1-1zm303 0l.5 1.5h-1l.5-1.5zm18 0v1-1zm18 0l1 2-1-2zm18 0v1-1zm-359 1v1-1zm383 0l.5 12.5h-1l.5-12.5zm-385 1v1-1zm48 0v1-1zm202 0l.5 1.5h-1l.5-1.5zm74 0v1-1zm13 0v1-1zm9 0v1-1zm-348 1v1-1zm220 0l.5 5.5h-1l.5-5.5zm15 0l.5 2.5h-1l.5-2.5zm-237 1v1-1zm311 0l.5 2.5h-1l.5-2.5zm16 0l.5 2.5h-1l.5-2.5zm-329 1v1-1zm55 0v1-1zm-57 1v1-1zm255 0l-1 2 1-2zm-258 2v1-1zm38 0l1.5.5-1.5.5v-1zm237 0l-1.5 2.5-.5 1.5-.5-1.5 2.5-2.5zm6 0v1-1zm-283 1l-1 2 1-2zm35 0l1.5.5-1.5.5v-1zm222 0v1-1zm62 0l.5 1.5h-1l.5-1.5zm31 0l.5 2.5h-1l.5-2.5zm-318 1v1-1zm303 0l.5 2.5h-1l.5-2.5zm-338 1l-1 2 1-2zm32 0v1-1zm227 0v1-1zm-229 1v1-1zm20 0l.5 1.5h-1l.5-1.5zm15 0l.5 1.5h-1l.5-1.5zm183 0l.5 4.5h-1l.5-4.5zm-220 1v1-1zm205 0l.5 2.5h-1l.5-2.5zm25 0v1-1zm63 0l.5 1.5h-1l.5-1.5zm-325 1v1-1zm29 0v1-1zm195 0l8.5.5-8.5.5v-1zm57 0l-2 3 2-3zm109 0l.5 2.5h-3l2.5-2.5zm-363 1v1-1zm26 0v1-1zm167 0v1-1zm15 0v1-1zm26 0v1-1zm95 0l.5 2.5h-1l.5-2.5zm-359 1l-1 2 1-2zm28 0v1-1zm43 0l.5 1.5h-1l.5-1.5zm149 0v1-1zm73 0l.5 1.5h-1l.5-1.5zm15 0l.5 1.5h-1l.5-1.5zm19 0v1-1zm17 0v1-1zm25 0l.5 2.5h-1l.5-2.5zm-343 1v1-1zm29 0v1-1zm163 0l-2 3 2-3zm62 0l-1 2 1-2zm31 0v1-1zm-287 1v1-1zm239 0l.5 1.5h-1l.5-1.5zm80 0v1-1zm47 0v1-1zm-394 1l-1 2 1-2zm296 0v1-1zm18 0l.5 1.5h-1l.5-1.5zm16 0v1-1zm81 0v1-1zm-353 1v1-1zm16 0v1-1zm184 0l.5 3.5h-1l.5-3.5zm24 0v1-1zm64 0l-4 5 4-5zm47 0v1-1zm-370 1v1-1zm272 0v1-1zm16 0l.5 1.5h-1l.5-1.5zm51 0v1-1zm10 0l.5 1.5h-1l.5-1.5zm-376 1l-2 3 2-3zm25 0l-1 2 1-2zm36 0v1-1zm16 0v1-1zm100 0l1.5.5-1.5.5v-1zm15 0v1-1zm28 0l-4 5 4-5zm50 0l.5 2.5h-1l.5-2.5zm47 0v1-1zm16 0l.5 1.5h-1l.5-1.5zm84 0v1-1zm-243 1v1-1zm20 0v1-1zm91 0v1-1zm110 0l-1 2 1-2zm-373 1v1-1zm38 0v1-1zm16 0v1-1zm96 0v1-1zm24 0l1 2-1-2zm101 0l-1 2 1-2zm17 0v1-1zm2 0v1-1zm85 0l.5 1.5h-1l.5-1.5zm-65 1l1 2-1-2zm28 0v1-1zm56 0l.5 1.5h-1l.5-1.5zm-399 1l.5 1.5h-1l.5-1.5zm38 0l-1 2 1-2zm16 0v1-1zm209 0l.5 2.5h-1l.5-2.5zm29 0v1-1zm80 0l-1 2 1-2zm-224 1l-1 2 1-2zm100 0l.5 3.5h-1l.5-3.5zm26 0l-3 4 3-4zm20 0v1-1zm24 0v1-1zm37 0l.5 1.5h-1l.5-1.5zm26 0l1 2-1-2zm-409 1l-13 14 13-14zm81 0v1-1zm141 0l-1 2 1-2zm46 0l.5 1.5h-1l.5-1.5zm51 0v1-1zm29 0v1-1zm21 0v1-1zm-342 1l.5 1.5h-1l.5-1.5zm37 0v1-1zm178 0l2.5.5-2.5.5v-1zm6 0l1.5.5-1.5.5v-1zm-168 1v1-1zm171 0l1 2-1-2zm70 0v1-1zm76 0l-1 2 1-2zm30 0l.5 1.5h-1l.5-1.5zm-364 1v1-1zm110 0l-1 2-3.5-.5 4.5-1.5zm66 0l-4 5 4-5zm78 0v1-1zm50 0l-9 10 9-10zm45 0l1 2-1-2zm-333 1v1-1zm132 0v1-1zm8 0v1-1zm71 0l.5 4.5h-1l.5-4.5zm-264 1l.5 1.5h-1l.5-1.5zm36 0l-1 2 1-2zm77 0l3.5.5-3.5.5v-1zm128 0l.5 2.5h-1l.5-2.5zm49 0l-2 3 2-3zm73 0l3.5.5-3.5.5v-1zm-311 1v1-1zm57 0v1-1zm12 0l1.5.5-1.5.5v-1zm18 0v1-1zm53 0l-1 2 1-2zm34 0l.5 1.5h-1l.5-1.5zm44 0l-1 2 1-2zm120 0v1-1zm-289 1l3.5.5-3.5.5v-1zm5 0l1.5.5-1.5.5v-1zm18 0v1-1zm62 0v1-1zm206 0v1-1zm4 0l1.5.5-1.5.5v-1zm-362 1v1-1zm17 0v1-1zm48 0v1-1zm39 0v1-1zm25 0l5.5.5-5.5.5v-1zm-66 1v1-1zm73 0l1 2-1-2zm20 0v1-1zm105 0v1-1zm-296 1l.5 1.5h-1l.5-1.5zm51 0l-1 2 1-2zm33 0l4.5.5-4.5.5v-1zm45 0l1 2-1-2zm9 0l.5 1.5h-1l.5-1.5zm23 0l-3 4-1.5-.5 4.5-3.5zm27 0l.5 1.5h-1l.5-1.5zm38 0l.5 2.5h-1l.5-2.5zm40 0v1-1zm21 0l-1 2 1-2zm23 0l2.5 1.5-1.5-.5-1-1zm-277 1v1-1zm49 0v1-1zm8 0l2 3-2-3zm100 0v1-1zm17 0l-1 2 1-2zm34 0l.5 2.5h-1l.5-2.5zm-257 1l.5 2.5-.5 1.5-1.5-2.5 1.5-1.5zm189 0v1-1zm126 0v1-1zm8 0v1-1zm-275 1l-1 2 1-2zm17 0v1-1zm30 0l-1 2 1-2zm110 0v1-1zm62 0v1-1zm51 0l2.5.5-2.5.5v-1zm13 0v1-1zm16 0v1-1zm-332 1l.5 1.5h-1l.5-1.5zm133 0v1-1zm42 0l.5 6.5h-1l.5-6.5zm31 0v1-1zm113 0l1.5.5-1.5.5v-1zm10 0v1-1zm-280 1l-1 2 1-2zm89 0l.5 1.5h-1l.5-1.5zm15 0l.5 1.5h-1l.5-1.5zm73 0l.5 1.5h-1l.5-1.5zm-265 1l-1 2 1-2zm115 0l-1 2 1-2zm129 0l-.5 1.5-.5 1.5-.5-1.5 1.5-1.5zm36 0l.5 1.5h-1l.5-1.5zm-211 1v1-1zm223 0v1-1zm-269 1l.5 1.5h-1l.5-1.5zm15 0l.5 2.5h-1l.5-2.5zm48 0v1-1zm233 0l-2 3 2-3zm-251 1l-1 2 1-2zm43 0l-3 4 3-4zm136 0l1.5.5-2.5 1.5 1-2zm5 0l2.5 1.5-1.5-.5-1-1zm12 0l.5 1.5h-1l.5-1.5zm-267 1l-1 2 1-2zm156 0l3.5.5-3.5.5v-1zm23 0l.5 1.5h-1l.5-1.5zm15 0l.5 1.5h-1l.5-1.5zm51 0v1-1zm37 0l.5 1.5h-1l.5-1.5zm15 0l1 2-1-2zm-279 1l-1 2 1-2zm69 0v1-1zm15 0l1.5.5-1.5.5v-1zm52 0l-2 3 2-3zm-129 1l.5 2.5h-1l.5-2.5zm44 0l-1 2 1-2zm28 0l1.5.5-1.5.5v-1zm162 0v1-1zm7 0l.5 1.5h-1l.5-1.5zm51 0v1-1zm-319 1v1-1zm42 0l.5 2.5h-1l.5-2.5zm46 0v1-1zm9 0v1-1zm12 0v1-1zm108 0v1-1zm29 0l.5 1.5h-1l.5-1.5zm38 0l1.5 2.5h-1l-.5-2.5zm19 0v1-1zm14 0v1-1zm-222 1l-1 2 1-2zm39 0l.5 1.5h-1l.5-1.5zm28 0l-1 2 1-2zm100 0l.5 1.5h-1l.5-1.5zm43 0v1-1zm10 0v1-1zm-316 1v1-1zm70 0l-1 2 1-2zm108 0v1-1zm132 0l2.5.5-2.5.5v-1zm-223 1l-1 2 1-2zm6 0l-4 5 4-5zm39 0l-1 2 1-2zm20 0v1-1zm29 0l.5 3.5h-1l.5-3.5zm15 0l.5 1.5h-1l.5-1.5zm19 0v1-1zm53 0l.5 1.5h-1l.5-1.5zm-269 1v1-1zm17 0v1-1zm11 0l.5 2.5h-1l.5-2.5zm134 0v1-1zm52 0v1-1zm50 0l.5 1.5h-1l.5-1.5zm-221 1l.5 1.5h-1l.5-1.5zm107 0l.5 1.5h-1l.5-1.5zm28 0v1-1zm34 0v1-1zm-144 1l-1 2 1-2zm18 0l-1 2 1-2zm43 0l-2 3 2-3zm6 0l.5 2.5h-1l.5-2.5zm26 0l-7 8 7-8zm48 0l1.5.5-1.5.5v-1zm24 0v1-1zm54 0l.5 1.5h-1l.5-1.5zm-272 1v1-1zm162 0v1-1zm25 0l4.5.5-4.5.5v-1zm61 0l-4 5 4-5zm-29 1v1-1zm-207 1l.5 1.5h-1l.5-1.5zm15 0l.5 1.5h-1l.5-1.5zm24 0l-1 2 1-2zm165 0l-4 5 4-5zm38 0l1.5 2.5-2-1 .5-1.5zm-269 1v1-1zm83 0v1-1zm5 0v1-1zm88 0l-1 2 1-2zm5 0l.5 1.5h-1l.5-1.5zm-167 1v1-1zm109 0v1-1zm113 0v1-1zm-235 1v1-1zm86 0v1-1zm62 0l.5 3 2 .5-3 .5.5-4zm133 0l-1 2 1-2zm-269 1l-1 2 1-2zm13 0l.5 1.5h-1l.5-1.5zm15 0l.5 2.5h-1l.5-2.5zm22 0l-2 3 2-3zm18 0l-1 2 1-2zm175 0v1-1zm16 0v1-1zm-99 1l-1 2 1-2zm81 0v1-1zm20 0v1-1zm5 0v1-1zm-275 1v1-1zm237 0v1-1zm11 0v1-1zm-173 1l-1 2 1-2zm39 0v1-1zm105 0l-1 2 1-2zm20 0l1.5.5-1.5.5v-1zm6 0v1-1zm-69 1l.5 3.5h-1l.5-3.5zm-121 1v1-1zm28 0v1-1zm83 0l-6 7 6-7zm49 0v1-1zm-194 1l.5 3.5h-1l.5-3.5zm15 0l.5 1.5h-1l.5-1.5zm176 0l1.5.5-1.5.5v-1zm-140 1l-1 2 1-2zm40 0l.5 1.5h-1l.5-1.5zm19 0v1-1zm78 0l1.5.5-1.5.5v-1zm-156 1l-1 2 1-2zm32 0v1-1zm120 0l1.5.5-1.5.5v-1zm-13 1l9.5.5-9.5.5v-1zm-103 1l3.5.5-3.5.5v-1zm22 0l.5 1.5h-1l.5-1.5zm79 0l.5 2.5h-1l.5-2.5zm-121 1v1-1zm64 0l1 2-1-2zm42 0l.5 2.5h-1l.5-2.5zm-140 1l.5 2.5h-1l.5-2.5zm15 0l-1 2 1-2zm42 0l.5 3.5h-1l.5-3.5zm-72 1l.5 2.5h-1l.5-2.5zm90 0v1-1zm47 0v1-1zm-2 1v1-1zm-89 1l-1 2 1-2zm71 0v1-1zm16 0v1-1zm-106 1l-2 3 2-3zm92 0v1-1zm11 0l1.5.5-1.5.5v-1zm24 0l.5 2.5h-1l.5-2.5zm15 0l.5 3.5h-1l.5-3.5zm-46 1l5.5.5-5.5.5v-1zm-80 2l-1 2 1-2zm31 0l2 3-2-3zm-60 1l.5 1.5h-1l.5-1.5zm71 0v1-1zm-87 1l.5 1.5h-1l.5-1.5zm25 0l-1 2 1-2zm60 0v1-1zm70 1l.5 1.5h-1l.5-1.5zm15 0l.5 1.5h-1l.5-1.5zm-128 1l-1 2 1-2zm-42 1l.5 1.5h-1l.5-1.5zm15 1v1-1zm7 0l-2 3 2-3zm147 1l.5 2.5h-1l.5-2.5zm-168 1v1-1zm38 0l-2 3 2-3zm115 0v1-1zm-141 1v1-1zm-10 1v1-1zm2 1v1-1zm3 0l1.5.5-1.5.5v-1zm145 0l.5 1.5h-1l.5-1.5zm15 1l.5 2.5h-1l.5-2.5zm-152 1l-1 2 1-2zm19 0l-2 3 2-3zm117 3v1-1zm15 1v1-1zm-136 1l-1 2 1-2zm120 0v1-1zm-141 2l-1 2 1-2zm140 0v1-1zm16 0v1-1zm-1 2l.5 1.5h-1l.5-1.5zm-138 1l-3 4 3-4zm-20 1l-2 3 2-3zm143 1v1-1zm14 0l-1 2 1-2zm-13 2l1 2-1-2zm-129 2l-3 4 3-4zm132 0v1-1zm6 0v1-1zm-158 1l-1 2 1-2zm-4 5l-2 3 2-3zm19 0l-2 3 2-3zm-23 5l-3 4 3-4zm19 0l-3 4 3-4zm-24 6l-3 4 3-4zm19 0l-3 4 3-4zm-24 6l-1 2 1-2zm19 0l-2 3 2-3zm-22 4l-1 2 1-2zm18 1l-1 2 1-2zm-21 3v1-1zm-2 3v1-1zm21 2v1-1zm-23 1v1-1zm21 2l-2 3 2-3zm-22 1v1-1zm-1 4l.5 2.5h-1l.5-2.5zm17 2v1-1zm-16 3v1-1zm14 0l-3 4 3-4zm-11 3v1-1z"/><path fill="#E733CC" stroke="#E733CC" d="M359.5 238q6.4.1 8.5 4.5l1 5-6 7-1 4-4 40-5 24 2 5-4.5 6.5q-1.9 3.6-8 3l-4.5-2-2-7.5 5-16 1-9q-2.5-4-10.5-2.5l-7.5 6.5-7 10-2 7 4.5-3.5 6-2 4.5 2 2 5.5q-1.6 6.9-7.5 9.5-4.5 3.5-12 4l-6-2-2.5-2.5-3.5-6.5-9 10-16 6h-12l-2.5 1-4 25.5q-1.7 7.8-6.5 12.5l-6 1-4.5-3.5-1-5 3-5 3-12 7-47 4.5-7.5q5.3 1.3 6.5-1.5l4.5-6.5q6.9-4.6 20-3 7.8 3.3 12.5 9.5l3.5 10.5q5.5-13.5 16-22 6.2-7.3 22-5l3.5 1 4-36.5q2.1-7.4 7.5-11.5l3-1zM279 307l-6 5-5 1-2 2-2 15q13 1 20-4l5-6q1-7-2-10-2-4-8-3zm194.5-49q7.5-1 10.5 1l4.5 13 4.5-6 7.5-4h6l3.5 2.5 2 4v23l1.5 2.5 2.5 1.5 1 5-3.5 5.5-5 1-8.5-6.5q-4-3.5-3-12l1-3-3 2-2 5-9.5 11.5q-8.7 1.8-10.5-3.5l-1-6 2-5V273l-4-2.5-1-6 4.5-6.5zm-314 6q8.8.4 13.5 4l4 9.5v5l-2 8-18 33q-31 45-67 85l-3 4-1 8L72.5 436q-7.2 1.3-9.5-2.5l-1-9 2-5 10-14 38-45 27-36 17-27 6-13V279h-7.5l-11 3-25.5 13-10 40.5-3 24-4.5 5.5-5 1-4.5-2-2-5.5 3-8 1-13 3-9 3-17-11 10-6 8-1 5-3.5 3.5q-6.5 1-8.5-2.5-2.7-2.3-2-8 9.8-19.2 26.5-31.5 16.8-15.2 39-25l18-6h8l1-1zm234 0h4l13 8 6-5 9-2q5.8 1.3 8.5 5.5l1 4-6 20.5 8.5 5 9.5-8.5q3.8-6.7 4-17l3.5-4.5q7.3-1.2 9.5 2.5l1 7-3 15-15.5 17.5q-4 3-12 2l-10-5q-2.2 4.3-10 3l-3.5-2.5-1-7 6-15.5q-6-2.2-4 4.5-6 15.5-17.5 25.5l-11 7h-8l-8.5-6.5q-3.1-5.4-2-15l3-15 4-8.5 6-4.5q-.5-5 3.5-5.5l12-5zm-1.5 15q-4 1-3 6l-4 3-3 4-3 12q-1 4 2 6l4-3q8-8 13-18v-10h-6zm-166.5 26q15.8-1.7 20.5 7.5 2.5 3.5 1 11-5.2 15.8-17.5 24.5l-9 4h-9l-5.5-3.5q-5.8-4.7-4-17l2-8-2.5 1.5-11.5 8-3.5 5q-2.2-.7-1.5 1.5l-4 11-3.5 4.5q-2.7 2.8-9 2-6.5-2.3-4.5-12-7.2 1.5-9-3.5l-1-6 8.5-10.5q4-5 14-4l4 2 15-12 8-1 4 3 8-6q7.4 1.4 10-2zm2.5 14l-2 1-3 4-4 2-2 2-1 10 6-2 10-12q2-7-4-5z"/><path fill="#EEFA53" stroke="#EEFA53" d="M504.5 110q7.6-1.1 9.5 3.5v8l-12 12-16 21q-10.3 14.7-17 33l-7.5 8.5-6 1-5.5-4.5-5-21-2-19-1.5-3.5-4.5 11.5-3 26-3 10v5l-2.5 3.5-8 1q-5.6-1.9-4.5-10.5l4-16 1-16 4-15q4.2-10.3 11.5-17.5 3-4 10-4l6.5 3 3 9.5 2 20 2.5 10.5q16.5-34 42-59l2-1zm-119 25q11.3-2.2 13.5 4.5l1 5q6.3 4.3 9 12v15l-5 18-15.5 17.5q-4.7 4.8-14 5-1.3-2.2-6-1l-6-3-4.5-4.5-3-7v-18l2-9 5-12 15.5-17.5 8-5zm2.5 20q-2 4-7 4l-8 10-4 19 1 7 5 2 7-3 10-14q4-8 2-21-2-4-6-4zm-42.5-19q6.2-.6 8.5 2l2 6.5-3.5 5.5-19.5 3v7.5l-5 7-1 6-6 15-1 11-2.5 3.5-7 1-4.5-3.5v-14l11-30.5q-14.5 1.8-22-4.5l-1-7 2.5-3.5q3.5-2.5 11-1l1 1h13l24-5zm-84 10h21l2.5 2.5 1 7-4.5 4.5-20 1-5.5 1.5q3.9 1.6 3 8l-3 12v7l-3 14-1 13-3.5 3.5-4 1-6.5-4.5v-12l3-15v-7l4-18.5q-6 2-16.5 1l-3.5-2.5-1-8 6.5-4.5h10l21-4zm-53 6q8.8-1.7 10.5 3.5l1 7-3 5q-3.8 22.2-12 40l-12 24-9.5 10.5q-4.1 4.9-15 3-8.5-2.5-13.5-8.5l-6-11v-17l3-13 3-34 3.5-5.5 7-1 4.5 4.5v12l-2 8-2 22-2 7v14l5.5 6.5 6 1 5.5-7.5 13-27 5-15 5-23 4.5-5.5zm-101 10q3.8 2.7 12 1l11 5 2.5 2.5 3 6v6l-1 3-7.5 7.5-2.5 1.5 8 6 4 7v7l-3 10-12.5 14.5q-8.4 7.1-20 11l-9 3h-13q-1.4 3.6-7 3l-5.5-3.5-1-8 1-1v-15l1-1v-11l1-1v-22q-3.8-2.3-3-9 1.5-8.5 7.5-12.5l11-6 23-4zm-2.5 15l-11 2-8 3-2 2v29l-1 1v17l-1 1 6 6q14-2 24-10 9-5 10-17l-4-3h-18l-5-4 1-8 14-8 10-8q-5-4-15-3zm331.5 167q6.4.1 8.5 4.5l1 12-6 7.5q6.1 3.3 15.5 4l2.5 2.5 1 7-5.5 8.5-12 5-15.5 1-1 8.5-2 3v6l-4.5 5.5q-8.3 1.3-10.5-3.5L396.5 400q-12.9 2.1-21 9h-5q-6.5-2-4.5-12.5l2.5-3.5 2.5-1.5 1-4 5.5-6.5 6.5-5.5-2-10-4-7v-5l3.5-4.5 8-1 14 8h5l15-5 13-7z"/></svg>